<svg height="512pt" viewBox="-13 0 512 512.003" width="512pt" xmlns="http://www.w3.org/2000/svg"><g fill-rule="evenodd"><path d="m218.945312 488.144531c2.859376-14.085937 17.351563-54.878906 89.21875-53.167969 0 0 8.726563-78.375 54.992188-98.445312-2.148438-6.054688-3.320312-12.570312-3.320312-19.359375 0-29.8125 22.542968-54.359375 51.511718-57.523437 2.085938-.230469 4.207032-.347657 6.355469-.347657 10.941406 0 21.171875 3.035157 29.898437 8.3125 16.765626 10.132813 27.972657 28.539063 27.972657 49.558594 0 31.328125-24.890625 56.835937-55.976563 57.835937-10.253906 80.308594-75.71875 153.328126-201.335937 117.839844 0 0 .089843-1.773437.683593-4.703125zm0 0" fill="#73ca5b"/><path d="m144.039062 369.316406c60.335938 46.09375 74.222657 123.53125 74.222657 123.53125-107.867188 0-195.308594-90.683594-195.308594-202.542968 0-27.460938 5.277344-53.636719 14.824219-77.515626-.277344 2.066407-12.832032 99.113282 74.046875 137.449219 11.984375 5.292969 22.679687 11.792969 32.214843 19.078125zm0 0" fill="#a6f074"/><path d="m124.222656 279.972656c37.203125 20.667969 19.816406 89.34375 19.816406 89.34375-9.535156-7.285156-20.230468-13.785156-32.21875-19.074218-86.878906-38.339844-74.320312-135.386719-74.042968-137.453126l-.011719-.003906c-50.886719-34.203125-22.128906-77.28125 9.359375-75.097656l-.003906.011719c9.496094.65625 19.234375 5.421875 27.117187 15.792969.003907 0 .003907.003906.007813.003906 0 .003906.003906.003906.007812.007812 17.3125 17.105469 16.898438 45.867188 16.898438 45.867188 34.625 22.652344 33.070312 80.601562 33.070312 80.601562zm0 0" fill="#73ca5b"/><path d="m411.316406 259.425781c-13.578125-92.046875-86.902344-163.695312-177.640625-171.042969 0 0 22.058594-38.273437 79.253907-23.226562l.007812-.007812c12.386719 3.261718 26.429688 9.027343 42.25 18.222656 0 0 47.535156-20.667969 66.136719 29.96875 60.945312 5.300781 68.699219 70.804687 31 108.503906 0 0 11.222656 17.136719-4.722657 45.769531-8.726562-5.273437-18.957031-8.308593-29.894531-8.308593-2.152343 0-4.269531.117187-6.359375.347656-.011718-.074219-.023437-.152344-.03125-.226563zm0 0" fill="#a6f074"/><path d="m411.316406 259.425781c.007813.074219.019532.152344.03125.222657-28.96875 3.164062-51.511718 27.710937-51.511718 57.523437 0 6.792969 1.171874 13.308594 3.320312 19.363281-46.265625 20.066406-54.992188 98.445313-54.992188 98.445313-71.867187-1.710938-86.359374 39.078125-89.21875 53.164062-.59375 2.929688-.683593 4.703125-.683593 4.703125s-13.886719-77.4375-74.222657-123.53125c0 0 17.386719-68.675781-19.816406-89.34375 0 0 1.554688-57.949218-33.070312-80.601562 0 0 .410156-28.761719-16.898438-45.867188 35.699219-40.402344 86.996094-65.742187 144.003906-65.742187 5.191407 0 10.332032.21875 15.414063.632812 90.738281 7.347657 164.066406 78.988281 177.644531 171.03125zm0 0" fill="#dcffb6"/><path d="m312.933594 65.148438s-13.550782-55.148438-77.621094-55.148438-72.335938 45.46875-72.335938 45.46875-105.761718-11.234375-115.851562 82.21875v.007812c9.492188.660157 19.234375 5.425782 27.117188 15.792969l.011718.015625c35.703125-40.40625 86.996094-65.742187 144.007813-65.742187 5.1875 0 10.328125.21875 15.414062.632812v-.011719s22.054688-38.273437 79.25-23.226562zm0 0" fill="#73ca5b"/></g><path d="m57.210938 385.609375-.226563-.40625c-2.644531-4.851563-8.722656-6.636719-13.566406-3.992187-4.851563 2.644531-6.636719 8.722656-3.992188 13.570312l.273438.496094c1.820312 3.304687 5.238281 5.167968 8.765625 5.167968 1.632812 0 3.289062-.398437 4.820312-1.246093 4.839844-2.667969 6.59375-8.753907 3.925782-13.589844zm0 0"/><path d="m173.625 103.074219c4.210938 0 8.089844-2.738281 9.476562-6.71875 1.480469-4.238281-.132812-9.078125-3.859374-11.582031-3.53125-2.371094-8.328126-2.226563-11.703126.367187-3.140624 2.414063-4.578124 6.574219-3.59375 10.410156 1.117188 4.371094 5.167969 7.523438 9.679688 7.523438zm0 0"/><path d="m460.332031 264.410156c7.929688-18.332031 6.160157-32.410156 3.671875-40.460937 19.472656-22.664063 26.398438-53.589844 17.175782-78.90625-8.097657-22.230469-27.164063-36.902344-52.816407-40.917969-6.664062-14.84375-16.5-25.121094-29.308593-30.601562-17.082032-7.308594-34.5625-3.660157-42.886719-1.097657-12.84375-7.144531-24.613281-12.125-35.378907-15.417969-2.246093-6.023437-6.777343-15.945312-14.929687-25.808593-11.765625-14.230469-33.558594-31.199219-70.546875-31.199219-36.816406 0-57.121094 14.195312-67.679688 26.101562-6.113281 6.898438-9.738281 13.789063-11.835937 18.976563-10.445313-.21875-29.488281.476563-49.367187 6.726563-37.890626 11.914062-61.285157 38.226562-68.027344 76.28125-1.296875.191406-2.597656.4375-3.898438.75-17.203125 4.140624-30.796875 18.265624-33.835937 35.160156-3.308594 18.410156 5.777343 37.1875 25.070312 52.390625-8.480469 23.625-12.789062 48.449219-12.789062 73.917969 0 21.914062 3.210937 43.527343 9.546875 64.234374 1.316406 4.308594 5.277344 7.078126 9.558594 7.078126.96875 0 1.957031-.140626 2.929687-.4375 5.28125-1.617188 8.253906-7.207032 6.640625-12.488282-5.753906-18.8125-8.671875-38.457031-8.671875-58.386718 0-5.0625.195313-10.089844.566406-15.089844 11.910157 37.105468 38.484375 68.382812 74.632813 84.339844 9.859375 4.382812 19.277344 9.902343 28.039062 16.394531 41.171875 32.652343 61.207032 83.054687 68.691406 106.40625-52.128906-3.84375-99.84375-30.070313-132.484374-73.28125-3.328126-4.40625-9.601563-5.285157-14.007813-1.953125-4.410156 3.328125-5.28125 9.601562-1.953125 14.007812 38.9375 51.546875 97.332031 81.261719 160.402344 81.699219 22.050781 6.121094 43.097656 9.175781 62.851562 9.175781 31.890625-.003906 60.398438-7.941406 84.230469-23.703125 33.609375-22.222656 56.796875-59.851562 64.40625-104.085937 14.449219-2.261719 27.75-9.125 38.09375-19.785156 12.351563-12.730469 19.152344-29.511719 19.152344-47.253907 0-21.292969-9.859375-40.3125-25.242188-52.765625zm-101.160156-171.867187c.167969-.070313 17.027344-7.042969 32.015625-.628907 5.925781 2.535157 10.941406 6.957032 15 13.183594-7.570312 1.726563-16.535156 5.125-23.5625 11.820313-4.003906 3.804687-4.15625 10.136719-.351562 14.136719 1.964843 2.066406 4.605468 3.105468 7.246093 3.105468 2.476563 0 4.957031-.914062 6.894531-2.757812 6.871094-6.539063 19.570313-8.015625 24.394532-8.058594 20.800781 1.910156 35.5625 12.03125 41.578125 28.546875 7.308593 20.054687.421875 45.328125-17.132813 62.882813-3.449218 3.449218-4.167968 8.5-1.355468 12.464843.640624 1.167969 5.316406 10.621094-.984376 26.9375-7.199218-2.890625-14.996093-4.578125-23.160156-4.824219-8.777344-46.457031-32.511718-88.816406-67.457031-120.054687-27.929687-24.96875-61.652344-41.445313-97.570313-48.140625 4.203126-2.867188 9.519532-5.585938 16.113282-7.382812 11.507812-3.128907 24.429687-2.867188 38.652344.765624.578124.210938 1.167968.371094 1.761718.46875 12.070313 3.289063 25.058594 8.960938 38.90625 17.011719 2.75 1.597657 6.097656 1.792969 9.011719.523438zm-311.480469 121.578125c.511719-3.773438-1.277344-7.648438-4.472656-9.722656-16.960938-11.4375-25.082031-24.527344-22.863281-36.863282 1.652343-9.203125 9.21875-16.941406 18.824219-19.25 5.851562-1.410156 17.160156-1.820312 27.101562 11.257813.011719.015625.027344.03125.039062.046875.238282.308594.503907.605468.78125.890625.039063.039062.074219.085937.113282.128906 12.273437 12.117187 13.742187 32.527344 13.914062 37.5-1.59375 6.078125-6.800781 28.679687-4.042968 55.566406.527343 5.148438 4.871093 8.980469 9.9375 8.980469.339843 0 .6875-.019531 1.03125-.054688 5.496093-.5625 9.492187-5.472656 8.929687-10.96875-1.269531-12.371093-.574219-23.816406.546875-32.574218 17.316406 23.171875 16.707031 60.078125 16.695312 60.65625-.097656 3.722656 1.882813 7.191406 5.140626 9 19.539062 10.855468 20.269531 42.296875 17.613281 63.570312-6.660157-4.160156-13.589844-7.847656-20.730469-11.019531-47.605469-21.015625-75.796875-73.296875-68.558594-127.144531zm107.371094 151.519531c3.402344-17.742187 9.988281-68.707031-20.90625-91.175781-.5625-15.535156-4.757812-58.109375-33.21875-80.378906-.65625-8.632813-3.25-25.90625-13.367188-40.242188 17.929688-18.515625 39.511719-33.230469 62.902344-42.792969 5.113282-2.089843 7.566406-7.929687 5.476563-13.039062-2.089844-5.113281-7.929688-7.566407-13.042969-5.476563-25.503906 10.421875-49.058594 26.351563-68.707031 46.359375-4.808594-4.136719-10.140625-7.191406-15.773438-9.070312 5.773438-29.484375 23.722657-49.246094 53.46875-58.769531 25.210938-8.074219 49.796875-5.664063 50.023438-5.640626 5.210937.5625 9.945312-2.914062 10.882812-8.066406.304688-1.527344 8.128907-37.34375 62.511719-37.34375 34.792969 0 52.519531 18.171875 60.992188 32.0625-38.851563-3.488281-60.078126 16.902344-67.5 25.992188-4.367188-.234375-8.753907-.335938-13.152344-.28125-5.828125.074218-10.441406 5.300781-9.816406 11.089844.296874 2.714843 1.722656 5.222656 3.894531 6.875 2.570312 1.953124 5.359375 2.019531 8.449219 2.019531 87.933593 0 164.253906 65.199219 181.65625 153.945312-28.777344 7.863281-50 34.226563-50 65.464844 0 4.8125.5 9.574219 1.496093 14.226563-35.585937 21.386718-48.070312 72.75-51.765625 93.578124-42.546875 1.035157-64.859375 17.234376-76.277344 31.378907-5.566406-34.527344-7.707031-64.894531-7.460937-91.480469 6.492187-22.960938 34.4375-24.828125 43.167969-24.828125h.121094c5.515624 0 9.992187-4.464844 10-9.984375.007812-5.519531-4.460938-10.007812-9.984376-10.015625-.050781 0-.101562 0-.152343 0-14.003907 0-29.273438 3.25-41.460938 11.152344 3.679688-39.25 12.796875-68.25 22.332031-88.84375.023438-.050781.050782-.097657.074219-.152344 18.25-16.480469 62.699219-24.839844 89.730469-2.816406 4.28125 3.484375 10.582031 2.84375 14.070312-1.4375 3.488282-4.285157 2.847657-10.582031-1.4375-14.074219-16.597656-13.515625-39.214843-19.683594-63.667968-17.351562-6.816406.652343-13.496094 1.941406-19.828125 3.78125 15.136719-20.246094 28.609375-28.109376 28.921875-28.289063 4.804687-2.675781 6.550781-8.730469 3.898437-13.558594-2.660156-4.84375-8.742187-6.605469-13.582031-3.945312-1.292969.710937-31.953125 17.988281-55.484375 67.628906-3.242187 6.847656-6.191406 13.996094-8.859375 21.414063-12.320312-27.527344-34.113281-54.246094-60.863281-65.394532-5.09375-2.125-10.953125.285156-13.078125 5.386719-2.125 5.097656.285156 10.953125 5.386718 13.078125 29.375 12.242188 53.695313 51.757812 58.625 81.816406-3.011718 13.8125-5.199218 28.351563-6.515624 43.570313-.871094 10.074219-1.347657 20.46875-1.46875 31.136719-.035157.484374-.050782.96875-.015626 1.441406-.144531 17.230468.671876 35.207031 2.46875 53.878906-10.710937-18.070312-24.832031-36.839844-43.164062-52.828125zm275.539062-2.34375c1.136719-10.761719 2.765626-20.082031 4.09375-22.519531 2.648438-4.847656.859376-10.921875-3.988281-13.566406-4.851562-2.644532-10.925781-.859376-13.570312 3.988281-5.085938 9.324219-7 34.621093-7.496094 42.8125-5.402344 41.757812-26.074219 77.320312-56.75 97.605469-31.945313 21.121093-74.332031 25.898437-123.007813 13.957031 4.394532-14.109375 20.386719-41.945313 78.046876-40.597657.039062.003907.078124-.003906.113281-.003906.042969 0 .078125.007813.121093.007813h.101563c12.773437-.15625 21.9375 2.289062 27.140625 7.175781 1.929688 1.808594 4.390625 2.707031 6.84375 2.707031 2.664062 0 5.324219-1.058593 7.292969-3.15625 3.78125-4.027343 3.582031-10.355469-.445313-14.136719-7.011718-6.578124-16.832031-10.582031-29.269531-12.003906 4.039063-20.8125 16.25-66.382812 47.3125-79.859375 4.824219-2.089843 7.203125-7.5625 5.445313-12.519531-1.824219-5.132812-2.75-10.519531-2.75-16.015625 0-26.394531 21.476562-47.867187 47.871093-47.867187s47.867188 21.472656 47.867188 47.867187c0 22.066406-14.660157 40.535156-34.972657 46.125zm0 0"/><path d="m291.152344 328.585938c-4.183594-3.578126-10.441406-3.070313-14.035156 1.101562-3.59375 4.160156-3.113282 10.472656 1.019531 14.089844 1.933593 1.832031 4.410156 2.746094 6.882812 2.746094 2.632813 0 5.257813-1.03125 7.222657-3.082032 3.820312-3.988281 3.6875-10.320312-.300782-14.140625-.25-.242187-.515625-.480469-.789062-.714843zm0 0"/></svg>