<svg height="512pt" viewBox="0 -2 512 512" width="512pt" xmlns="http://www.w3.org/2000/svg"><path d="m260.621094 94.433594c18.085937-7.542969 46.402344-24.394532 46.402344-56.09375 0 0 50.238281 37.066406 99.714843 16.691406-20.375 49.480469 16.695313 99.71875 16.695313 99.71875-13.289063 0-23.96875 4.976562-32.449219 12.09375l-78.722656 60.207031-62.335938-31.167969" fill="#ffc73b"/><path d="m282.054688 187.371094c-1.859376 0-3.71875-.660156-5.207032-1.996094-3.203125-2.878906-3.464844-7.804688-.585937-11.007812l71.503906-79.542969c2.878906-3.199219 7.808594-3.460938 11.007813-.582031 3.199218 2.875 3.460937 7.804687.582031 11.003906l-71.503907 79.542968c-1.539062 1.710938-3.664062 2.582032-5.796874 2.582032zm0 0" fill="#efb025"/><path d="m215.265625 163.261719v-68.828125h81.460937v68.828125" fill="#adc165"/><path d="m215.265625 163.261719v-68.828125h25.308594v68.828125" fill="#99aa52"/><path d="m220.460938 160.664062c-3.265626 0-6.308594-2.070312-7.394532-5.339843-10.390625-31.265625-29.316406-57.160157-47.246094-72.621094-2.242187 13.761719-8.074218 26.382813-17.339843 37.292969-11.210938 13.199218-26.179688 17.988281-41.070313 13.132812-15.933594-5.191406-28.386718-20.921875-29.609375-37.410156-1.203125-16.191406 8.058594-30.449219 25.410157-39.117188 15.011718-7.5 30.691406-8.207031 46.644531-2.117187-2.542969-12.792969-7.4375-21.792969-7.882813-22.59375-2.089844-3.753906-.75-8.5 3-10.597656 3.75-2.097657 8.488282-.773438 10.59375 2.972656.300782.539063 7.453125 13.402344 10.222656 31.4375.398438 2.589844.683594 5.160156.863282 7.703125 30.335937 20.722656 52.691406 61.386719 61.203125 87.003906 1.359375 4.085938-.851563 8.496094-4.9375 9.851563-.8125.273437-1.640625.402343-2.457031.402343zm-91.832032-94.683593c-6.246094 0-12.363281 1.519531-18.453125 4.5625-11.746093 5.863281-17.566406 14.171875-16.832031 24.019531.761719 10.277344 8.886719 20.488281 18.894531 23.75 6.15625 2.003906 15.378907 2.175781 24.363281-8.402344 10.425782-12.277344 14.203126-25.53125 14.710938-37.570312-1.898438-1.058594-3.75-1.964844-5.539062-2.707032-5.863282-2.433593-11.558594-3.652343-17.144532-3.652343zm0 0" fill="#99aa52"/><path d="m254.101562 107.425781c-2.316406 0-4.609374-1.03125-6.144531-2.996093-23.054687-29.496094-39.398437-72.359376-9.59375-96.085938 11.425781-9.09375 24.183594-10.84375 34.992188-4.804688 11.09375 6.195313 17.765625 19.445313 16.21875 32.21875-1.433594 11.894532-9.527344 20.722657-22.195313 24.214844-4.152344 1.140625-8.441406-1.292968-9.585937-5.441406-1.140625-4.148438 1.292969-8.441406 5.441406-9.585938 6.542969-1.800781 10.199219-5.523437 10.867187-11.058593.78125-6.449219-2.808593-13.648438-8.347656-16.742188-6.515625-3.640625-13.214844-.164062-17.683594 3.394531-9.390624 7.476563-12.320312 18.316407-8.957031 33.144532 2.863281 12.640625 10.5625 27.640625 21.121094 41.148437 2.652344 3.390625 2.050781 8.289063-1.339844 10.9375-1.425781 1.113281-3.117187 1.65625-4.792969 1.65625zm0 0" fill="#adc165"/><path d="m131.757812 333.015625c0 77.457031 35.027344 143.113281 83.507813 165.917969v3.835937c-3.429687.820313-6.890625 1.539063-10.390625 2.148438-9.859375 1.726562-19.992188 2.628906-30.339844 2.628906-96.402344 0-174.535156-78.144531-174.535156-174.53125 0-96.390625 78.132812-174.535156 174.535156-174.535156 10.347656 0 20.480469.902343 30.339844 2.628906 3.5.613281 6.960938 1.328125 10.390625 2.148437v3.835938c-48.480469 22.804688-83.507813 88.460938-83.507813 165.921875zm0 0" fill="#e87425"/><path d="m296.726562 502.769531c13.070313 3.128907 26.703126 4.78125 40.726563 4.78125 96.402344 0 174.546875-78.144531 174.546875-174.535156s-78.144531-174.535156-174.546875-174.535156c-14.023437 0-27.65625 1.652343-40.726563 4.78125" fill="#ff903e"/><path d="m465.699219 333.015625c0 96.386719-78.144531 174.53125-174.535157 174.53125-5.941406 0-11.804687-.300781-17.589843-.882813 88.140625-8.800781 156.953125-83.191406 156.953125-173.648437s-68.804688-164.84375-156.941406-173.652344c5.785156-.59375 11.644531-.882812 17.578124-.882812 96.390626 0 174.535157 78.144531 174.535157 174.535156zm0 0" fill="#e87425"/><path d="m430.535156 333.015625c0 96.390625-78.144531 174.535156-174.539062 174.535156-96.390625 0-174.535156-78.144531-174.535156-174.535156 0-96.394531 78.144531-174.539063 174.535156-174.539063 96.394531 0 174.539062 78.144532 174.539062 174.539063zm0 0" fill="#ff903e"/><path d="m215.265625 498.933594c9.652344 4.550781 19.84375 7.398437 30.398437 8.292968-3.457031.207032-6.9375.320313-10.449218.320313-10.351563 0-20.492188-.902344-30.339844-2.628906-81.929688-14.359375-144.195312-85.863281-144.195312-171.902344 0-86.042969 62.265624-157.546875 144.195312-171.90625 9.847656-1.726563 19.988281-2.628906 30.339844-2.628906 3.511718 0 6.992187.113281 10.449218.320312-10.554687.894531-20.746093 3.742188-30.398437 8.292969-48.480469 22.804688-83.507813 88.460938-83.507813 165.921875 0 77.457031 35.027344 143.113281 83.507813 165.917969zm0 0" fill="#ff903e"/><path d="m152.535156 333.015625c0-92.886719 50.371094-168.8125 113.910156-174.21875-3.457031-.203125-6.9375-.320313-10.449218-.320313-96.390625 0-174.535156 78.144532-174.535156 174.539063 0 96.390625 78.144531 174.535156 174.535156 174.535156 3.511718 0 6.992187-.117187 10.449218-.320312-63.539062-5.40625-113.910156-81.332031-113.910156-174.214844zm0 0" fill="#e87425"/></svg>